# 3ds Max Wavefront OBJ Exporter v0.97b - (c)2007 guruware
# File Created: 29.12.2016 10:41:22

mtllib sphereLowPoly.mtl

#
# object Sphere001
#

v  28.6691 44.6648 23.8164
v  28.6691 65.2903 11.9082
v  10.8068 54.9775 11.9082
v  10.8068 34.3520 11.9082
v  28.6691 24.0392 11.9082
v  46.5314 34.3520 11.9082
v  46.5314 54.9775 11.9082
v  28.6691 65.2903 -11.9082
v  10.8069 54.9775 -11.9082
v  10.8069 34.3520 -11.9082
v  28.6691 24.0392 -11.9082
v  46.5314 34.3520 -11.9082
v  46.5314 54.9775 -11.9082
v  28.6691 44.6648 -23.8164
# 14 vertices

vn 0.0000 0.0000 1.0000
vn 0.0000 0.8973 0.4413
vn -0.7771 0.4487 0.4413
vn -0.7771 -0.4487 0.4413
vn -0.0000 -0.8973 0.4413
vn 0.7771 -0.4487 0.4413
vn 0.7771 0.4487 0.4413
vn 0.0000 0.8973 -0.4413
vn -0.7771 0.4487 -0.4413
vn -0.7771 -0.4487 -0.4413
vn -0.0000 -0.8973 -0.4413
vn 0.7771 -0.4487 -0.4413
vn 0.7771 0.4487 -0.4413
vn 0.0000 0.0000 -1.0000
# 14 vertex normals

g Sphere001
usemtl wire_154215229
f 1//1 2//2 3//3 
f 1//1 3//3 4//4 
f 1//1 4//4 5//5 
f 1//1 5//5 6//6 
f 1//1 6//6 7//7 
f 1//1 7//7 2//2 
f 2//2 8//8 9//9 3//3 
f 3//3 9//9 10//10 4//4 
f 4//4 10//10 11//11 5//5 
f 5//5 11//11 12//12 6//6 
f 6//6 12//12 13//13 7//7 
f 7//7 13//13 8//8 2//2 
f 14//14 9//9 8//8 
f 14//14 10//10 9//9 
f 14//14 11//11 10//10 
f 14//14 12//12 11//11 
f 14//14 13//13 12//12 
f 14//14 8//8 13//13 
# 6 polygons - 12 triangles

