# 3ds Max Wavefront OBJ Exporter v0.97b - (c)2007 guruware
# File Created: 26.01.2017 02:33:45

mtllib box1.mtl

#
# object Box001
#

v  0.4293 -0.2747 2.8008
v  -0.4812 -0.4392 2.7899
v  -0.4812 -0.4392 1.3848
v  0.4293 -0.2747 1.2345
v  -0.2262 0.5283 1.7962
v  -0.2262 0.5283 2.3786
v  0.3939 0.1856 2.3546
v  0.1622 0.1856 1.2606
# 8 vertices

vn 0.0000 -1.0000 -0.0000
vn 0.0000 1.0000 -0.0000
vn 0.0000 0.0000 1.0000
vn 1.0000 0.0000 -0.0000
vn 0.0000 0.0000 -1.0000
vn -1.0000 0.0000 -0.0000
# 6 vertex normals

vt 0.0000 0.0000 0.0000
vt 1.0000 0.0000 0.0000
vt 1.0000 1.0000 0.0000
vt 0.0000 1.0000 0.0000
# 4 texture coords

o Box001
g Box001
usemtl box1_box_wire_153228214
s 2
f 1/1/1 2/2/1 3/3/1 
f 3/3/1 4/4/1 1/1/1 
s 4
f 5/4/2 6/1/2 7/2/2 
f 7/2/2 8/3/2 5/4/2 
s 8
f 6/4/3 2/1/3 1/2/3 
f 1/2/3 7/3/3 6/4/3 
s 16
f 7/4/4 1/1/4 4/2/4 
f 4/2/4 8/3/4 7/4/4 
s 32
f 8/4/5 4/1/5 3/2/5 
f 3/2/5 5/3/5 8/4/5 
s 64
f 5/4/6 3/1/6 2/2/6 
f 2/2/6 6/3/6 5/4/6 
# 12 faces

