# 3ds Max Wavefront OBJ Exporter v0.97b - (c)2007 guruware
# File Created: 26.01.2017 22:49:56

mtllib heightTest.mtl

#
# object Box001
#

v  -9.1240 0.0000 18.7040
v  -9.1240 0.0000 -22.1080
v  5.9994 0.0000 -22.1080
v  5.9994 0.0000 18.7040
v  -9.1240 12.6118 18.7040
v  5.9994 12.6118 18.7040
v  5.9994 12.6118 -22.1080
v  -9.1240 12.6118 -22.1080
# 8 vertices

vn 0.0000 -1.0000 -0.0000
vn 0.0000 1.0000 -0.0000
vn 0.0000 0.0000 1.0000
vn 1.0000 0.0000 -0.0000
vn 0.0000 0.0000 -1.0000
vn -1.0000 0.0000 -0.0000
# 6 vertex normals

vt 1.0000 0.0000 0.0000
vt 1.0000 1.0000 0.0000
vt 0.0000 1.0000 0.0000
vt 0.0000 0.0000 0.0000
# 4 texture coords

o Box001
g Box001
usemtl wire_057008136
s 2
f 1/1/1 2/2/1 3/3/1 
f 3/3/1 4/4/1 1/1/1 
s 4
f 5/4/2 6/1/2 7/2/2 
f 7/2/2 8/3/2 5/4/2 
s 8
f 1/4/3 4/1/3 6/2/3 
f 6/2/3 5/3/3 1/4/3 
s 16
f 4/4/4 3/1/4 7/2/4 
f 7/2/4 6/3/4 4/4/4 
s 32
f 3/4/5 2/1/5 8/2/5 
f 8/2/5 7/3/5 3/4/5 
s 64
f 2/4/6 1/1/6 5/2/6 
f 5/2/6 8/3/6 2/4/6 
# 12 faces

#
# object Box002
#

v  -0.5000 0.0000 0.5000
v  -0.5000 0.0000 -0.5000
v  0.5000 0.0000 -0.5000
v  0.5000 0.0000 0.5000
v  -0.5000 1.0000 0.5000
v  0.5000 1.0000 0.5000
v  0.5000 1.0000 -0.5000
v  -0.5000 1.0000 -0.5000
v  0.3000 0.2000 -0.0000
v  -0.3000 0.2000 -0.0000
v  -0.3000 0.8000 -0.0000
v  0.3000 0.8000 -0.0000
v  -0.3000 0.2000 -0.5000
v  0.3000 0.2000 -0.5000
v  -0.3000 0.8000 -0.5000
v  0.3000 0.8000 -0.5000
# 16 vertices

vn 0.0000 -1.0000 -0.0000
vn 0.0000 1.0000 -0.0000
vn 0.0000 0.0000 1.0000
vn 1.0000 0.0000 -0.0000
vn 0.0000 0.0000 -1.0000
vn -1.0000 0.0000 -0.0000
# 6 vertex normals

vt 1.0000 0.0000 0.0000
vt 1.0000 1.0000 0.0000
vt 0.0000 1.0000 0.0000
vt 0.0000 0.0000 0.0000
# 4 texture coords

o Box002
g Box002
usemtl wire_154215229
s 2
f 9/5/7 10/6/7 11/7/7 
f 11/7/7 12/8/7 9/5/7 
s 4
f 13/8/8 14/5/8 15/6/8 
f 15/6/8 16/7/8 13/8/8 
s 8
f 9/8/9 12/5/9 14/6/9 
f 14/6/9 13/7/9 9/8/9 
s 16
f 12/8/10 11/5/10 15/6/10 
f 15/6/10 14/7/10 12/8/10 
s 32
f 17/8/11 18/5/11 19/6/11 
f 19/6/11 20/7/11 17/8/11 
s 64
f 10/8/12 9/5/12 13/6/12 
f 13/6/12 16/7/12 10/8/12 
s off
f 11/8/11 10/5/11 21/5/11 
f 21/5/11 22/8/11 11/8/11 
f 10/5/11 16/6/11 23/6/11 
f 23/6/11 21/5/11 10/5/11 
f 16/6/11 15/7/11 24/7/11 
f 24/7/11 23/6/11 16/6/11 
f 15/7/11 11/8/11 22/8/11 
f 22/8/11 24/7/11 15/7/11 
f 22/8/8 21/5/8 18/5/8 
f 18/5/8 17/8/8 22/8/8 
f 21/5/10 23/6/10 19/6/10 
f 19/6/10 18/5/10 21/5/10 
f 23/6/7 24/7/7 20/7/7 
f 20/7/7 19/6/7 23/6/7 
f 24/7/12 22/8/12 17/8/12 
f 17/8/12 20/7/12 24/7/12 
# 28 faces

