# 3ds Max Wavefront OBJ Exporter v0.97b - (c)2007 guruware
# File Created: 31.01.2017 21:25:07

#
# object Plane001
#

v  -0.5000 0.5000 0.0000
v  -0.5000 1.5000 -0.0000
v  0.5000 1.5000 -0.0000
# 3 vertices

vn 0.0000 0.0000 1.0000
vn 0.0000 0.0000 1.0000
vn 0.0000 0.0000 1.0000
# 3 vertex normals

vt 0.0000 0.0000 0.0000
vt 0.0000 1.0000 0.0000
vt 1.0000 1.0000 0.0000
# 3 texture coords

o Plane001
g Plane001
s 1
f 2/2/1 1/1/2 3/3/3 
# 1 faces

#
# object Plane002
#

v  1.0291 0.5000 0.0000
v  1.0291 1.5000 -0.0000
v  2.0291 1.5000 -0.0000
# 3 vertices

vn 0.0000 0.0000 1.0000
vn 0.0000 0.0000 1.0000
vn 0.0000 0.0000 1.0000
# 3 vertex normals

vt 0.0000 0.0000 0.0000
vt 0.0000 1.0000 0.0000
vt 1.0000 1.0000 0.0000
# 3 texture coords

o Plane002
g Plane002
s 1
f 5/5/4 4/4/5 6/6/6 
# 1 faces

#
# object Plane003
#

v  -1.9509 0.5000 0.0000
v  -1.9509 1.5000 -0.0000
v  -0.9509 1.5000 -0.0000
# 3 vertices

vn 0.0000 0.0000 1.0000
vn 0.0000 0.0000 1.0000
vn 0.0000 0.0000 1.0000
# 3 vertex normals

vt 0.0000 0.0000 0.0000
vt 0.0000 1.0000 0.0000
vt 1.0000 1.0000 0.0000
# 3 texture coords

o Plane003
g Plane003
s 1
f 8/8/7 7/7/8 9/9/9 
# 1 faces

#
# object Plane004
#

v  -3.3436 0.5000 0.0000
v  -3.3436 1.5000 -0.0000
v  -2.3436 1.5000 -0.0000
# 3 vertices

vn 0.0000 0.0000 1.0000
vn 0.0000 0.0000 1.0000
vn 0.0000 0.0000 1.0000
# 3 vertex normals

vt 0.0000 0.0000 0.0000
vt 0.0000 1.0000 0.0000
vt 1.0000 1.0000 0.0000
# 3 texture coords

o Plane004
g Plane004
s 1
f 11/11/10 10/10/11 12/12/12 
# 1 faces

#
# object Plane005
#

v  2.5471 0.5000 0.0000
v  2.5471 1.5000 -0.0000
v  3.5471 1.5000 -0.0000
# 3 vertices

vn 0.0000 0.0000 1.0000
vn 0.0000 0.0000 1.0000
vn 0.0000 0.0000 1.0000
# 3 vertex normals

vt 0.0000 0.0000 0.0000
vt 0.0000 1.0000 0.0000
vt 1.0000 1.0000 0.0000
# 3 texture coords

o Plane005
g Plane005
s 1
f 14/14/13 13/13/14 15/15/15 
# 1 faces

#
# object Plane006
#

v  -0.9274 0.3811 0.0000
v  -0.9050 -0.6186 -0.0000
v  -1.9047 -0.6410 -0.0000
# 3 vertices

vn 0.0000 -0.0000 1.0000
vn 0.0000 -0.0000 1.0000
vn 0.0000 -0.0000 1.0000
# 3 vertex normals

vt 0.0000 0.0000 0.0000
vt 0.0000 1.0000 0.0000
vt 1.0000 1.0000 0.0000
# 3 texture coords

o Plane006
g Plane006
s 1
f 17/17/16 16/16/17 18/18/18 
# 1 faces

#
# object Plane007
#

v  2.0519 0.4478 0.0000
v  2.0743 -0.5519 -0.0000
v  1.0746 -0.5743 -0.0000
# 3 vertices

vn 0.0000 -0.0000 1.0000
vn 0.0000 -0.0000 1.0000
vn 0.0000 -0.0000 1.0000
# 3 vertex normals

vt 0.0000 0.0000 0.0000
vt 0.0000 1.0000 0.0000
vt 1.0000 1.0000 0.0000
# 3 texture coords

o Plane007
g Plane007
s 1
f 20/20/19 19/19/20 21/21/21 
# 1 faces

#
# object Plane008
#

v  3.4443 0.4790 0.0000
v  3.4666 -0.5207 -0.0000
v  2.4669 -0.5431 -0.0000
# 3 vertices

vn 0.0000 -0.0000 1.0000
vn 0.0000 -0.0000 1.0000
vn 0.0000 -0.0000 1.0000
# 3 vertex normals

vt 0.0000 0.0000 0.0000
vt 0.0000 1.0000 0.0000
vt 1.0000 1.0000 0.0000
# 3 texture coords

o Plane008
g Plane008
s 1
f 23/23/22 22/22/23 24/24/24 
# 1 faces

#
# object Plane009
#

v  -2.4450 0.3471 0.0000
v  -2.4227 -0.6526 -0.0000
v  -3.4224 -0.6750 -0.0000
# 3 vertices

vn 0.0000 -0.0000 1.0000
vn 0.0000 -0.0000 1.0000
vn 0.0000 -0.0000 1.0000
# 3 vertex normals

vt 0.0000 0.0000 0.0000
vt 0.0000 1.0000 0.0000
vt 1.0000 1.0000 0.0000
# 3 texture coords

o Plane009
g Plane009
s 1
f 26/26/25 25/25/26 27/27/27 
# 1 faces

#
# object Plane010
#

v  0.6013 0.4154 0.0000
v  0.6237 -0.5844 -0.0000
v  -0.3760 -0.6068 -0.0000
# 3 vertices

vn 0.0000 -0.0000 1.0000
vn 0.0000 -0.0000 1.0000
vn 0.0000 -0.0000 1.0000
# 3 vertex normals

vt 0.0000 0.0000 0.0000
vt 0.0000 1.0000 0.0000
vt 1.0000 1.0000 0.0000
# 3 texture coords

o Plane010
g Plane010
s 1
f 29/29/28 28/28/29 30/30/30 
# 1 faces

